<?xml version="1.0" encoding="utf-8"?>
<!-- Generator: Adobe Illustrator 27.0.0, SVG Export Plug-In . SVG Version: 6.00 Build 0)  -->
<svg version="1.1" id="Layer_1" xmlns="http://www.w3.org/2000/svg" xmlns:xlink="http://www.w3.org/1999/xlink" x="0px" y="0px"
	 viewBox="0 0 500 500" style="enable-background:new 0 0 500 500;" xml:space="preserve">
<style type="text/css">
	.st0{fill:#D96230;}
	.st1{fill:#FF714F;}
	.st2{fill:#F08741;}
</style>
<path class="st0" d="M479.5,332.3c-2,10.5-5.5,15.1-12.1,19.1c-66.8,41.7-133.6,83.4-200.4,125.1c-10,6-18.6,8.5-29.6,1.5
	c-65.8-41.2-132.6-81.9-198.9-122.6c-24.1-14.6-21.1-23.1,0.5-40.7c25.6-20.6,44.7-9.5,66.8,4c40.2,25.6,80.9,49.7,121.1,75.3
	c17.1,10.5,32.1,10,48.7-0.5c44.7-28.6,90.4-55.8,135.1-84.4c16.1-10,29.6-5,42.7,3C463.4,317.3,472,326.3,479.5,332.3z"/>
<path class="st1" d="M65.1,205.7c18.6,4,30.6,17.6,45.7,25.6c37.2,20.6,74.3,42.2,109,67.3c24.1,17.6,44.2,12.1,65.3-1
	c44.2-27.6,88.4-56.3,132.6-83.9c15.6-9.5,53.2,3,60.3,19.6c4,9.5-1.5,16.1-9,21.1c-68.8,43.2-138.1,85.9-206.9,128.6
	c-7,4.5-14.6,4.5-21.1,0.5c-68.8-44.7-140.6-83.9-207.4-131.1c-18.6-13.1-12.1-22.1,1.5-31.1C44,215.8,55.1,211.3,65.1,205.7z"/>
<g>
	<path class="st2" d="M94.2,100.3c47.7-28.6,95.9-54.8,145.7-79.4c6.5,0.5,13.1,3,19.6,0.5c17.1,8.5,34.2,17.6,50.7,26.6
		c49.7,27.1,100,53.7,149.2,80.9c24.6,13.6,26.1,23.1,3,38.2c-66.3,42.7-134.1,83.9-200.9,126.1c-9.5,6-17.1,3.5-25.1-1.5
		c-66.3-41.2-133.1-81.9-198.9-123.6c-23.6-15.1-22.6-25.6,3-39.7c12.6-6.5,25.1-13.1,37.7-19.1C86.2,110.3,91.2,107.3,94.2,100.3z"
		/>
	<path class="st2" d="M94.2,100.3c0.5,13.6-6.5,12.6-15.6,8.5C84.2,105.8,89.2,103.3,94.2,100.3z"/>
	<path class="st2" d="M260,21.4c-6.5,5.5-13.1,5.5-19.6-0.5C246.9,16.4,253.5,16.9,260,21.4z"/>
</g>
</svg>
