<?xml version="1.0" encoding="UTF-8"?>
<svg id="Layer_2" data-name="Layer 2" xmlns="http://www.w3.org/2000/svg" viewBox="0 0 441.2 100.32">
  <defs>
    <style>
      .cls-1 {
        font-family: Galvji-Bold, Galvji;
        font-weight: 700;
        isolation: isolate;
      }

      .cls-1, .cls-2 {
        fill: #d96230;
      }

      .cls-3 {
        fill: #f08741;
      }

      .cls-4 {
        fill: #ff714f;
      }

      .cls-5 {
        font-size: 62.7px;
        letter-spacing: -.02em;
      }

      .cls-6 {
        letter-spacing: -.02em;
      }

      .cls-6, .cls-7 {
        font-size: 91.47px;
      }

      .cls-7 {
        letter-spacing: -.02em;
      }
    </style>
  </defs>
  <g id="Layer_1-2" data-name="Layer 1">
    <g>
      <g>
        <path class="cls-2" d="M76.18,61.53c-.34,1.73-.9,2.47-2.03,3.12-11.1,6.81-22.2,13.62-33.3,20.43-1.65,.98-3.07,1.39-4.93,.24-10.93-6.74-22.06-13.38-33.02-20.02-4.03-2.37-3.52-3.76,.1-6.64,4.27-3.35,7.45-1.56,11.1,.64,6.69,4.2,13.44,8.1,20.1,12.3,2.83,1.73,5.34,1.63,8.1-.1,7.45-4.68,15-9.11,22.44-13.75,2.69-1.63,4.93-.85,7.1,.51,1.65,.85,3.07,2.3,4.34,3.29Z"/>
        <path class="cls-4" d="M7.3,40.87c3.07,.64,5.07,2.88,7.58,4.2,6.21,3.35,12.34,6.88,18.13,10.98,4.03,2.88,7.34,2,10.86-.17,7.34-4.51,14.69-9.21,22.06-13.72,2.59-1.56,8.86,.51,10.03,3.22,.65,1.56-.24,2.64-1.52,3.46-11.44,7.05-22.96,14.03-34.37,21-1.17,.75-2.41,.75-3.52,.1-11.44-7.32-23.37-13.72-34.47-21.41-3.07-2.13-2.03-3.62,.24-5.08,1.45-.91,3.27-1.66,4.96-2.57Z"/>
        <g>
          <path class="cls-3" d="M12.17,23.62c7.93-4.68,15.96-8.98,24.23-12.98,1.1,.1,2.17,.51,3.27,.1,2.83,1.39,5.69,2.88,8.41,4.34,8.24,4.44,16.62,8.74,24.79,13.21,4.07,2.24,4.34,3.76,.52,6.23-11.03,6.98-22.3,13.72-33.37,20.6-1.59,.98-2.83,.58-4.17-.24-11.03-6.74-22.1-13.38-33.02-20.19-3.93-2.47-3.76-4.2,.52-6.47,2.07-1.08,4.17-2.13,6.24-3.12,1.24,.17,2.07-.3,2.59-1.49Z"/>
          <path class="cls-3" d="M12.17,23.62c.1,2.24-1.1,2.03-2.59,1.39,.9-.44,1.72-.88,2.59-1.39Z"/>
          <path class="cls-3" d="M39.71,10.75c-1.1,.88-2.17,.88-3.27-.1,1.1-.68,2.17-.61,3.27,.1Z"/>
        </g>
      </g>
      <text class="cls-1" transform="translate(95.3 75.62) scale(1.02 .97)"><tspan class="cls-7" x="0" y="0">task</tspan><tspan class="cls-5" x="190.49" y="0"> </tspan><tspan class="cls-6" x="205.27" y="0">list</tspan></text>
    </g>
  </g>
</svg>